<svg xmlns="http://www.w3.org/2000/svg" width="1024" height="1024" viewBox="0 0 1024 1024"><clipPath id="r"><rect width="1024" height="1024" rx="230"/></clipPath><g clip-path="url(#r)"><defs><linearGradient id="bg" x1="0" y1="0" x2="0" y2="1"><stop offset="0" stop-color="#1F2A3C"/><stop offset="1" stop-color="#0B111C"/></linearGradient></defs><rect width="1024" height="1024" fill="url(#bg)"/><path d="M212 352V268A56 56 0 0 1 268 212H352 M672 212H756A56 56 0 0 1 812 268V352 M812 672V756A56 56 0 0 1 756 812H672 M352 812H268A56 56 0 0 1 212 756V672" fill="none" stroke="#FFFFFF" stroke-width="58" stroke-linecap="round" stroke-linejoin="round"/><path d="M392 560A150 150 0 1 1 632 560L512 720Z" fill="#FF5A4E" stroke="#FF5A4E" stroke-width="18" stroke-linejoin="round"/><path d="M454 470a58 58 0 1 0 116 0a58 58 0 1 0 -116 0Z" fill="#FFFFFF"/></g></svg>
